<svg width="186" height="34" viewBox="0 0 186 34" fill="none" xmlns="http://www.w3.org/2000/svg">
<path d="M0.218454 18.6713C0.00235704 18.6198 -0.0737275 18.3507 0.0833205 18.1932L12.874 5.36805C13.0388 5.20281 13.321 5.29617 13.3553 5.5273L14.1552 10.9085C14.1685 10.9977 14.1388 11.0879 14.0752 11.1517L5.35646 19.894L0.218454 18.6713Z" fill="white"/>
<path d="M0.218454 18.6713C0.00235704 18.6198 -0.0737275 18.3507 0.0833205 18.1932L12.874 5.36805C13.0388 5.20281 13.321 5.29617 13.3553 5.5273L14.1552 10.9085C14.1685 10.9977 14.1388 11.0879 14.0752 11.1517L5.35646 19.894L0.218454 18.6713Z" fill="url(#paint0_linear_233_25)"/>
<path d="M27.8054 15.4709C27.7556 15.2529 27.4859 15.1751 27.3282 15.3333L14.0681 28.6291L15.2875 33.781C15.3388 33.9976 15.6072 34.0739 15.7643 33.9165L28.8798 20.7655C28.9489 20.6963 28.9776 20.5962 28.9558 20.5007L27.8054 15.4709Z" fill="white"/>
<path d="M27.8054 15.4709C27.7556 15.2529 27.4859 15.1751 27.3282 15.3333L14.0681 28.6291L15.2875 33.781C15.3388 33.9976 15.6072 34.0739 15.7643 33.9165L28.8798 20.7655C28.9489 20.6963 28.9776 20.5962 28.9558 20.5007L27.8054 15.4709Z" fill="url(#paint1_linear_233_25)"/>
<path d="M5.35646 19.894L9.33807 15.9016C9.40498 15.8345 9.50083 15.8053 9.59366 15.8236L16.5348 17.1966C16.6477 17.2189 16.736 17.3074 16.7583 17.4207L18.1275 24.3805C18.1458 24.4736 18.1166 24.5697 18.0497 24.6367L14.0681 28.6291L12.3818 21.7927C12.3565 21.6902 12.2767 21.6101 12.1745 21.5848L5.35646 19.894Z" fill="white"/>
<path d="M5.35646 19.894L9.33807 15.9016C9.40498 15.8345 9.50083 15.8053 9.59366 15.8236L16.5348 17.1966C16.6477 17.2189 16.736 17.3074 16.7583 17.4207L18.1275 24.3805C18.1458 24.4736 18.1166 24.5697 18.0497 24.6367L14.0681 28.6291L12.3818 21.7927C12.3565 21.6902 12.2767 21.6101 12.1745 21.5848L5.35646 19.894Z" fill="url(#paint2_linear_233_25)"/>
<path d="M15.201 3.19771C15.1877 3.10852 15.2174 3.01831 15.281 2.95455L18.1441 0.0836679C18.3102 -0.0827918 18.5945 0.0133565 18.626 0.24663L19.3625 5.69147C19.3744 5.77951 19.3446 5.86808 19.2819 5.93091L16.4822 8.7382C16.3174 8.90344 16.0352 8.81008 16.0009 8.57894L15.201 3.19771Z" fill="white"/>
<path d="M15.201 3.19771C15.1877 3.10852 15.2174 3.01831 15.281 2.95455L18.1441 0.0836679C18.3102 -0.0827918 18.5945 0.0133565 18.626 0.24663L19.3625 5.69147C19.3744 5.77951 19.3446 5.86808 19.2819 5.93091L16.4822 8.7382C16.3174 8.90344 16.0352 8.81008 16.0009 8.57894L15.201 3.19771Z" fill="url(#paint3_linear_233_25)"/>
<path d="M47.0695 25.1346C50.5132 25.1346 52.9306 23.3716 52.9306 20.2297C52.9306 17.4268 51.1061 16.274 47.8677 15.4377C45.1082 14.737 44.4241 14.3979 44.4241 13.3581C44.4241 12.5444 45.131 11.9341 46.4766 11.9341C47.8221 11.9341 49.2132 12.5218 50.6272 13.4938L52.4516 10.8717C50.8324 9.58334 48.8484 8.86003 46.5222 8.86003C43.261 8.86003 40.9348 10.7587 40.9348 13.6294C40.9348 16.8165 43.0101 17.698 46.2257 18.5118C48.894 19.1899 49.4413 19.642 49.4413 20.5235C49.4413 21.4955 48.5747 22.0605 47.1379 22.0605C45.3135 22.0605 43.8083 21.3146 42.3716 20.1392L40.2963 22.603C42.2119 24.2983 44.6521 25.1346 47.0695 25.1346Z" fill="white"/>
<path d="M47.0695 25.1346C50.5132 25.1346 52.9306 23.3716 52.9306 20.2297C52.9306 17.4268 51.1061 16.274 47.8677 15.4377C45.1082 14.737 44.4241 14.3979 44.4241 13.3581C44.4241 12.5444 45.131 11.9341 46.4766 11.9341C47.8221 11.9341 49.2132 12.5218 50.6272 13.4938L52.4516 10.8717C50.8324 9.58334 48.8484 8.86003 46.5222 8.86003C43.261 8.86003 40.9348 10.7587 40.9348 13.6294C40.9348 16.8165 43.0101 17.698 46.2257 18.5118C48.894 19.1899 49.4413 19.642 49.4413 20.5235C49.4413 21.4955 48.5747 22.0605 47.1379 22.0605C45.3135 22.0605 43.8083 21.3146 42.3716 20.1392L40.2963 22.603C42.2119 24.2983 44.6521 25.1346 47.0695 25.1346Z" fill="url(#paint4_linear_233_25)"/>
<path d="M56.1381 24.9086H59.6502V9.08606H56.1381V24.9086Z" fill="white"/>
<path d="M56.1381 24.9086H59.6502V9.08606H56.1381V24.9086Z" fill="url(#paint5_linear_233_25)"/>
<path d="M71.3252 25.1798C74.2443 25.1798 76.5021 24.0497 78.1441 22.6708V15.7993H71.2112V18.8056H74.746V21.066C73.8566 21.6989 72.7163 22.0153 71.4392 22.0153C68.6113 22.0153 66.6045 19.8906 66.6045 16.9973C66.6045 14.2623 68.6341 12.0245 71.1884 12.0245C73.0356 12.0245 74.1303 12.6122 75.3618 13.6294L77.5739 10.9848C75.9091 9.58334 74.1759 8.81482 71.3024 8.81482C66.4676 8.81482 62.9328 12.4992 62.9328 16.9973C62.9328 21.7215 66.3536 25.1798 71.3252 25.1798Z" fill="white"/>
<path d="M71.3252 25.1798C74.2443 25.1798 76.5021 24.0497 78.1441 22.6708V15.7993H71.2112V18.8056H74.746V21.066C73.8566 21.6989 72.7163 22.0153 71.4392 22.0153C68.6113 22.0153 66.6045 19.8906 66.6045 16.9973C66.6045 14.2623 68.6341 12.0245 71.1884 12.0245C73.0356 12.0245 74.1303 12.6122 75.3618 13.6294L77.5739 10.9848C75.9091 9.58334 74.1759 8.81482 71.3024 8.81482C66.4676 8.81482 62.9328 12.4992 62.9328 16.9973C62.9328 21.7215 66.3536 25.1798 71.3252 25.1798Z" fill="url(#paint6_linear_233_25)"/>
<path d="M81.5234 24.9086H84.967V14.6466L89.4141 21.3372H89.5053L93.998 14.5787V24.9086H97.4873V9.08606H93.7016L89.5053 15.7767L85.3091 9.08606H81.5234V24.9086Z" fill="white"/>
<path d="M81.5234 24.9086H84.967V14.6466L89.4141 21.3372H89.5053L93.998 14.5787V24.9086H97.4873V9.08606H93.7016L89.5053 15.7767L85.3091 9.08606H81.5234V24.9086Z" fill="url(#paint7_linear_233_25)"/>
<path d="M99.954 24.9086H103.535L104.994 21.3598H111.745L113.204 24.9086H116.876L110.034 8.97304H106.796L99.954 24.9086ZM106.248 18.2857L108.369 13.1547L110.49 18.2857H106.248Z" fill="white"/>
<path d="M99.954 24.9086H103.535L104.994 21.3598H111.745L113.204 24.9086H116.876L110.034 8.97304H106.796L99.954 24.9086ZM106.248 18.2857L108.369 13.1547L110.49 18.2857H106.248Z" fill="url(#paint8_linear_233_25)"/>
<path d="M119.655 24.9139H123.167V20.1672H125.835C129.416 20.1672 132.289 18.2685 132.289 14.6067C132.289 11.3292 129.986 9.0914 126.177 9.0914H119.655V24.9139ZM123.167 17.0705V12.2333H125.881C127.637 12.2333 128.731 13.0696 128.731 14.6293C128.731 16.0307 127.705 17.0705 125.949 17.0705H123.167Z" fill="white"/>
<path d="M119.655 24.9139H123.167V20.1672H125.835C129.416 20.1672 132.289 18.2685 132.289 14.6067C132.289 11.3292 129.986 9.0914 126.177 9.0914H119.655V24.9139ZM123.167 17.0705V12.2333H125.881C127.637 12.2333 128.731 13.0696 128.731 14.6293C128.731 16.0307 127.705 17.0705 125.949 17.0705H123.167Z" fill="url(#paint9_linear_233_25)"/>
<path d="M142.642 25.1852C147.568 25.1852 151.149 21.5008 151.149 17.0027C151.149 12.4593 147.614 8.82016 142.688 8.82016C137.762 8.82016 134.181 12.5046 134.181 17.0027C134.181 21.546 137.716 25.1852 142.642 25.1852ZM142.688 21.9755C139.86 21.9755 137.853 19.7151 137.853 17.0027C137.853 14.245 139.814 12.0299 142.642 12.0299C145.47 12.0299 147.477 14.2902 147.477 17.0027C147.477 19.7603 145.516 21.9755 142.688 21.9755Z" fill="white"/>
<path d="M142.642 25.1852C147.568 25.1852 151.149 21.5008 151.149 17.0027C151.149 12.4593 147.614 8.82016 142.688 8.82016C137.762 8.82016 134.181 12.5046 134.181 17.0027C134.181 21.546 137.716 25.1852 142.642 25.1852ZM142.688 21.9755C139.86 21.9755 137.853 19.7151 137.853 17.0027C137.853 14.245 139.814 12.0299 142.642 12.0299C145.47 12.0299 147.477 14.2902 147.477 17.0027C147.477 19.7603 145.516 21.9755 142.688 21.9755Z" fill="url(#paint10_linear_233_25)"/>
<path d="M162.018 25.1852C166.944 25.1852 170.524 21.5008 170.524 17.0027C170.524 12.4593 166.99 8.82016 162.064 8.82016C157.138 8.82016 153.557 12.5046 153.557 17.0027C153.557 21.546 157.092 25.1852 162.018 25.1852ZM162.064 21.9755C159.236 21.9755 157.229 19.7151 157.229 17.0027C157.229 14.245 159.19 12.0299 162.018 12.0299C164.846 12.0299 166.853 14.2902 166.853 17.0027C166.853 19.7603 164.891 21.9755 162.064 21.9755Z" fill="white"/>
<path d="M162.018 25.1852C166.944 25.1852 170.524 21.5008 170.524 17.0027C170.524 12.4593 166.99 8.82016 162.064 8.82016C157.138 8.82016 153.557 12.5046 153.557 17.0027C153.557 21.546 157.092 25.1852 162.018 25.1852ZM162.064 21.9755C159.236 21.9755 157.229 19.7151 157.229 17.0027C157.229 14.245 159.19 12.0299 162.018 12.0299C164.846 12.0299 166.853 14.2902 166.853 17.0027C166.853 19.7603 164.891 21.9755 162.064 21.9755Z" fill="url(#paint11_linear_233_25)"/>
<path d="M173.64 24.9139H185.111V21.7494H177.152V9.0914H173.64V24.9139Z" fill="white"/>
<path d="M173.64 24.9139H185.111V21.7494H177.152V9.0914H173.64V24.9139Z" fill="url(#paint12_linear_233_25)"/>
<defs>
<linearGradient id="paint0_linear_233_25" x1="41.5522" y1="-14.4668" x2="-10.9408" y2="6.16914" gradientUnits="userSpaceOnUse">
<stop stop-color="#32228A"/>
<stop offset="1" stop-color="#745ACD"/>
</linearGradient>
<linearGradient id="paint1_linear_233_25" x1="41.5522" y1="-14.4668" x2="-10.9408" y2="6.16914" gradientUnits="userSpaceOnUse">
<stop stop-color="#32228A"/>
<stop offset="1" stop-color="#745ACD"/>
</linearGradient>
<linearGradient id="paint2_linear_233_25" x1="41.5522" y1="-14.4668" x2="-10.9408" y2="6.16914" gradientUnits="userSpaceOnUse">
<stop stop-color="#32228A"/>
<stop offset="1" stop-color="#745ACD"/>
</linearGradient>
<linearGradient id="paint3_linear_233_25" x1="41.5522" y1="-14.4668" x2="-10.9408" y2="6.16914" gradientUnits="userSpaceOnUse">
<stop stop-color="#32228A"/>
<stop offset="1" stop-color="#745ACD"/>
</linearGradient>
<linearGradient id="paint4_linear_233_25" x1="248.057" y1="1.84934" x2="230.904" y2="71.8755" gradientUnits="userSpaceOnUse">
<stop stop-color="#32228A"/>
<stop offset="1" stop-color="#745ACD"/>
</linearGradient>
<linearGradient id="paint5_linear_233_25" x1="248.057" y1="1.84934" x2="230.904" y2="71.8755" gradientUnits="userSpaceOnUse">
<stop stop-color="#32228A"/>
<stop offset="1" stop-color="#745ACD"/>
</linearGradient>
<linearGradient id="paint6_linear_233_25" x1="248.057" y1="1.84934" x2="230.904" y2="71.8755" gradientUnits="userSpaceOnUse">
<stop stop-color="#32228A"/>
<stop offset="1" stop-color="#745ACD"/>
</linearGradient>
<linearGradient id="paint7_linear_233_25" x1="248.057" y1="1.84934" x2="230.904" y2="71.8755" gradientUnits="userSpaceOnUse">
<stop stop-color="#32228A"/>
<stop offset="1" stop-color="#745ACD"/>
</linearGradient>
<linearGradient id="paint8_linear_233_25" x1="248.057" y1="1.84934" x2="230.904" y2="71.8755" gradientUnits="userSpaceOnUse">
<stop stop-color="#32228A"/>
<stop offset="1" stop-color="#745ACD"/>
</linearGradient>
<linearGradient id="paint9_linear_233_25" x1="248.057" y1="1.84934" x2="230.904" y2="71.8755" gradientUnits="userSpaceOnUse">
<stop stop-color="#32228A"/>
<stop offset="1" stop-color="#745ACD"/>
</linearGradient>
<linearGradient id="paint10_linear_233_25" x1="248.057" y1="1.84934" x2="230.904" y2="71.8755" gradientUnits="userSpaceOnUse">
<stop stop-color="#32228A"/>
<stop offset="1" stop-color="#745ACD"/>
</linearGradient>
<linearGradient id="paint11_linear_233_25" x1="248.057" y1="1.84934" x2="230.904" y2="71.8755" gradientUnits="userSpaceOnUse">
<stop stop-color="#32228A"/>
<stop offset="1" stop-color="#745ACD"/>
</linearGradient>
<linearGradient id="paint12_linear_233_25" x1="248.057" y1="1.84934" x2="230.904" y2="71.8755" gradientUnits="userSpaceOnUse">
<stop stop-color="#32228A"/>
<stop offset="1" stop-color="#745ACD"/>
</linearGradient>
</defs>
</svg>
