<svg width="12" height="12" viewBox="0 0 12 12" fill="none" xmlns="http://www.w3.org/2000/svg">
<path d="M9.97318 10.9267L9.97324 10.9268C10.101 11.0548 10.2726 11.125 10.4549 11.125C10.6274 11.125 10.7923 11.0614 10.9179 10.9446C11.1863 10.6953 11.1952 10.2799 10.9365 10.0202L10.848 10.1084L10.9365 10.0202L8.5524 7.62625C9.15784 6.89144 9.48891 5.98262 9.48891 5.0375C9.48891 2.73811 7.55271 0.875 5.18195 0.875C2.8112 0.875 0.875 2.73811 0.875 5.0375C0.875 7.33688 2.8112 9.19999 5.18195 9.19999C6.03717 9.19999 6.85464 8.96066 7.56147 8.50507L9.97318 10.9267ZM5.18195 2.17826C6.82152 2.17826 8.14796 3.46509 8.14796 5.0375C8.14796 6.6099 6.82152 7.89673 5.18195 7.89673C3.54239 7.89673 2.21594 6.6099 2.21594 5.0375C2.21594 3.46509 3.54239 2.17826 5.18195 2.17826Z" fill="#828282" stroke="#999999" stroke-width="0.25"/>
</svg>
